<svg xmlns="http://www.w3.org/2000/svg" viewBox="0 0 40 40"><defs><style>.cls-1{fill:#0c4ba0;}.cls-2,.cls-3{fill:#fff;}.cls-2{fill-rule:evenodd;}</style></defs><g id="Layer_2" ><g id="Layer_1-2"><rect class="cls-1" x="4.83" y="5.02" width="31" height="31" rx="7.75"/><path class="cls-2" d="M0,6.25A6.25,6.25,0,0,1,6.25,0h27.5A6.25,6.25,0,0,1,40,6.25v27.5A6.25,6.25,0,0,1,33.75,40H6.25A6.25,6.25,0,0,1,0,33.75ZM11.4,11.4C10,12.81,10,15.07,10,19.6v.8c0,4.52,0,6.78,1.4,8.2S15.07,30,19.6,30h.8c4.52,0,6.78,0,8.2-1.4S30,24.93,30,20.4v-.8c0-4.52,0-6.78-1.4-8.2S24.93,10,20.4,10h-.8C15.08,10,12.82,10,11.4,11.4Z"/><path class="cls-3" d="M20.64,24.41c-4.56,0-7.16-3.12-7.27-8.32h2.3c.07,3.81,1.75,5.42,3.08,5.76V16.09h2.16v3.28c1.31-.14,2.7-1.64,3.16-3.29h2.15a6.37,6.37,0,0,1-2.92,4.15A6.69,6.69,0,0,1,25.46,22a6.54,6.54,0,0,1,1.26,2.46H24.35a4.11,4.11,0,0,0-3.44-3v3Z"/></g></g></svg>
