<svg xmlns="http://www.w3.org/2000/svg" viewBox="0 0 40 40"><defs><style>.cls-1{fill:#0c4ba0;}.cls-2{fill:#fff;fill-rule:evenodd;}</style></defs><g id="Layer_2"><g id="Layer_1-2" ><path class="cls-1" d="M11,3.22h17.5a8.63,8.63,0,0,1,8.75,8.5v17a8.63,8.63,0,0,1-8.75,8.5H11a8.63,8.63,0,0,1-8.75-8.5v-17A8.63,8.63,0,0,1,11,3.22Z"/><path class="cls-2" d="M6.25,0h27.5A6.25,6.25,0,0,1,40,6.25v27.5A6.25,6.25,0,0,1,33.75,40H6.25A6.25,6.25,0,0,1,0,33.75V6.25A6.25,6.25,0,0,1,6.25,0ZM20.86,15q-2.68,1.11-10.74,4.63c-.87.34-1.32.68-1.37,1-.07.56.64.78,1.59,1.08l.4.13a12.82,12.82,0,0,0,2.87.68,3.47,3.47,0,0,0,2-.74c5-3.38,7.61-5.1,7.77-5.13a.42.42,0,0,1,.38,0,.39.39,0,0,1,.09.33,50,50,0,0,1-4.25,4.18c-.44.42-.76.71-.82.78l-.44.43c-.87.84-1.53,1.47,0,2.5l1.95,1.31c.66.45,1.31.9,2.16,1.45l.62.43a3.52,3.52,0,0,0,2.3,1c.49-.05,1-.51,1.25-1.89.61-3.26,1.81-10.33,2.09-13.24a3.24,3.24,0,0,0,0-.73.81.81,0,0,0-.26-.5,1.29,1.29,0,0,0-.72-.21C27,12.51,26,12.88,20.86,15Z"/></g></g></svg>
